<svg width="160" height="83" viewBox="0 0 160 83" fill="none" xmlns="http://www.w3.org/2000/svg">
<path d="M99.947 68.8376C99.4029 69.1033 98.6246 69.2868 97.8148 69.2868C95.3093 69.2868 93.8225 67.6165 93.8225 64.9465C93.8225 62.1184 95.4295 60.4733 97.9097 60.4733C98.7259 60.4733 99.4092 60.6632 99.8837 60.8973L100.118 60.2139C99.8837 60.1001 99.2257 59.8027 97.9097 59.8027C94.8854 59.8027 93 61.8969 93 64.9528C93 68.42 95.1828 69.9638 97.587 69.9638C98.7512 69.9638 99.6812 69.7297 100.162 69.5019L99.947 68.8376ZM106.837 69.1349H102.579V59.9482H101.769V69.8119H106.837V69.1349ZM111.829 59.9482H110.994L107.546 69.8119H108.362L109.52 66.427H113.259L114.423 69.8119H115.264L111.829 59.9482ZM109.728 65.7816L110.861 62.5423C111.07 61.9222 111.241 61.3528 111.373 60.7644H111.405C111.557 61.3338 111.702 61.9032 111.924 62.5929L113.037 65.788H109.728V65.7816ZM121.307 60.2456C120.965 60.0241 120.263 59.79 119.358 59.79C117.656 59.79 116.454 60.8403 116.454 62.2955C116.454 63.6621 117.447 64.5099 118.966 65.0604C120.332 65.6045 120.876 66.2498 120.876 67.3317C120.876 68.4896 120.035 69.2804 118.611 69.2804C117.808 69.2804 117.042 69.0147 116.492 68.6414L116.22 69.3121C116.713 69.679 117.694 69.9511 118.542 69.9511C120.598 69.9511 121.693 68.7427 121.693 67.2495C121.693 65.7943 120.851 65.0161 119.244 64.3518C117.878 63.7823 117.257 63.2445 117.257 62.1753C117.257 61.4034 117.789 60.4607 119.301 60.4607C120.13 60.4607 120.756 60.7328 121.028 60.9226L121.307 60.2456ZM128.051 60.2456C127.71 60.0241 127.007 59.79 126.103 59.79C124.401 59.79 123.198 60.8403 123.198 62.2955C123.198 63.6621 124.192 64.5099 125.71 65.0604C127.077 65.6045 127.621 66.2498 127.621 67.3317C127.621 68.4896 126.78 69.2804 125.356 69.2804C124.552 69.2804 123.787 69.0147 123.236 68.6414L122.964 69.3121C123.458 69.679 124.439 69.9511 125.299 69.9511C127.349 69.9511 128.444 68.7427 128.444 67.2495C128.444 65.7943 127.602 65.0161 125.995 64.3518C124.628 63.7823 124.008 63.2445 124.008 62.1753C124.008 61.4034 124.54 60.4607 126.052 60.4607C126.881 60.4607 127.507 60.7328 127.779 60.9226L128.051 60.2456ZM135.365 69.1349H131.076V64.9655H134.916V64.2885H131.076V60.6189H135.144V59.9482H130.266V69.8119H135.372V69.1349H135.365ZM141.553 60.2456C141.211 60.0241 140.509 59.79 139.604 59.79C137.902 59.79 136.706 60.8403 136.706 62.2955C136.706 63.6621 137.693 64.5099 139.212 65.0604C140.579 65.6045 141.123 66.2498 141.123 67.3317C141.123 68.4896 140.281 69.2804 138.864 69.2804C138.054 69.2804 137.282 69.0147 136.738 68.6414L136.466 69.3121C136.96 69.679 137.94 69.9511 138.801 69.9511C140.851 69.9511 141.945 68.7427 141.945 67.2495C141.945 65.7943 141.104 65.0161 139.503 64.3518C138.136 63.7823 137.51 63.2445 137.51 62.1753C137.51 61.4034 138.048 60.4607 139.554 60.4607C140.389 60.4607 141.009 60.7328 141.281 60.9226L141.553 60.2456Z" fill="#003760"/>
<path d="M89.7543 29.7244V57.4996H81.0674V29.7244H81.099C82.1493 30.9265 83.6931 31.6857 85.4077 31.6857C87.1223 31.6857 88.666 30.9265 89.7163 29.7244H89.7543Z" fill="#003760"/>
<path d="M59.2772 33.2294L58.828 29.7243H51.3369C51.4381 32.3879 51.533 35.4502 51.533 38.9047V68.5464H60.2073V55.2282H60.3591C61.3525 56.7593 63.472 58.0373 66.2811 58.0373C71.7096 58.0373 77.3786 53.5452 77.3786 43.3841C77.3786 35.0958 73.1838 29.1738 67.072 29.1738C63.7124 29.1738 61.0045 30.6543 59.3721 33.2294H59.2772ZM60.2073 40.9736C60.2073 38.0126 62.0864 36.1841 64.111 36.1841C67.0214 36.1841 68.5968 39.0438 68.5968 43.6878C68.5968 48.0281 67.072 51.2359 64.0161 51.2359C61.789 51.2359 60.2136 49.1606 60.2136 46.3451V40.9736H60.2073Z" fill="#003760"/>
<path d="M46.5663 29.7244H37.8794V46.7438C37.8794 49.553 36.1522 50.9386 34.3743 50.9386C31.9574 50.9386 30.9261 48.7748 30.9261 45.0166V29.7244H22.2393V46.2503C22.2393 54.2476 25.3964 58.0437 31.021 58.0437C35.064 58.0437 37.5821 55.8167 38.7652 54.0514H38.9171L39.3157 57.4996H46.8068C46.7055 55.0321 46.5663 51.9762 46.5663 48.5786V29.7244Z" fill="#003760"/>
<path d="M17.1713 19.3608H8.48442V44.1814C8.48442 49.4581 6.46613 50.6918 3.60635 50.6918C2.22708 50.6918 0.987002 50.4957 0 50.1983V57.5566C1.30968 57.8792 3.01162 58.0437 4.49213 58.0437C11.7934 58.0437 17.1713 55.184 17.1713 44.0802V19.3608Z" fill="#003760"/>
<path d="M151.739 65.3639C145.633 74.0508 136.206 80.4094 124.925 82.3771C113.638 84.3448 102.617 81.5483 93.936 75.4364C88.9314 71.9187 84.705 67.3063 81.6491 61.8715C82.9398 63.5102 84.4962 65.6234 85.8945 67.2241C94.9736 77.6382 109.038 83.0794 123.394 80.5739C130.575 79.3275 136.934 76.2842 142.103 71.9883C151.024 65.2754 156.636 54.7031 156.876 43.2133C157.041 35.0769 154.643 27.3011 149.828 20.6894C141.787 9.62364 127.893 3.4612 113.499 5.96667C102.996 7.80148 95.1318 13.8753 89.716 22.1383C88.6657 20.9489 87.1282 20.1959 85.42 20.1959C83.7117 20.1959 82.1679 20.9552 81.1177 22.1446H81.1113C81.9402 20.5819 82.8576 19.0698 83.8762 17.6272C89.969 8.94665 99.3899 2.58808 110.677 0.620405C121.964 -1.34095 132.986 1.44923 141.666 7.56106C150.353 13.6665 156.712 23.0937 158.68 34.3746C160.641 45.6619 157.851 56.6771 151.739 65.3639Z" fill="url(#paint0_linear)"/>
<path d="M142.388 40.7837C142.388 30.8947 135.789 29.3193 132.948 29.3193C128.538 29.3193 125.242 31.8058 123.767 34.7478H123.666L123.407 29.9837H120.572C120.673 32.1095 120.768 34.0392 120.768 36.6776V57.4173H123.919V40.4294C123.919 36.0702 127.418 31.9577 132.03 31.9577C137.459 31.9577 139.224 36.3169 139.224 41.1887V57.4173H142.375V40.7837H142.388Z" fill="#003760"/>
<path d="M105.381 29.3193C98.5798 29.3193 92.5439 34.4948 92.5439 43.9282C92.5439 52.6531 97.9725 58.031 105.027 58.031C111.063 58.031 117.902 53.6654 117.902 43.4221C117.902 35.1022 112.936 29.3193 105.381 29.3193ZM114.714 43.5676C114.714 50.3184 110.601 55.4875 105.128 55.4875C99.7503 55.4875 95.7517 50.3184 95.7517 43.7764C95.7517 38.0442 98.6368 31.8564 105.28 31.8564C112.025 31.8564 114.714 38.5503 114.714 43.5676Z" fill="#003760"/>
<path fill-rule="evenodd" clip-rule="evenodd" d="M85.4073 30.0977C87.6976 30.0977 89.5704 28.2313 89.5704 25.9346C89.5704 23.6443 87.7039 21.7715 85.4073 21.7715C83.1169 21.7715 81.2441 23.6379 81.2441 25.9346C81.2505 28.225 83.1169 30.0977 85.4073 30.0977Z" fill="url(#paint1_linear)"/>
<defs>
<linearGradient id="paint0_linear" x1="130.89" y1="79.2151" x2="106.677" y2="7.31905" gradientUnits="userSpaceOnUse">
<stop stop-color="#FFC91D"/>
<stop offset="1" stop-color="#E55200"/>
</linearGradient>
<linearGradient id="paint1_linear" x1="106.158" y1="87.5443" x2="81.945" y2="15.6483" gradientUnits="userSpaceOnUse">
<stop stop-color="#FFC91D"/>
<stop offset="1" stop-color="#E55200"/>
</linearGradient>
</defs>
</svg>
